<?xml version="1.0" encoding="utf-8"?>
<!-- Generator: Adobe Illustrator 19.2.1, SVG Export Plug-In . SVG Version: 6.00 Build 0)  -->
<svg version="1.1" id="layer" xmlns="http://www.w3.org/2000/svg" xmlnsXlink="http://www.w3.org/1999/xlink" x="0px" y="0px"
	 viewBox="20 200 652 222" style="enable-background:new 0 0 652 652;fill: white;" xmlSpace="preserve" height="40">
<style type="text/css">
	.st0{fill:#DB364F;}
</style>
<g>
	<path d="M616.3,400.4c1.2,0,1.9-0.7,1.9-2c0-1.2-0.7-1.9-1.9-1.9h-2v3.9H616.3z M612.7,395.1h3.9c1.9,0,3.2,1.3,3.2,3.2
		c0,1.6-1,2.6-2,2.9v0.1c0,0,0.1,0.1,0.4,0.6l2.1,4.1h-1.7l-2.2-4.4h-2.1v4.4h-1.6V395.1z M616,409.1c4.7,0,8.3-3.7,8.3-8.6
		c0-4.8-3.6-8.6-8.3-8.6c-4.6,0-8.2,3.8-8.2,8.6C607.8,405.4,611.4,409.1,616,409.1z M616,390.5c5.5,0,9.9,4.5,9.9,10.1
		c0,5.7-4.4,10.1-9.9,10.1c-5.4,0-9.8-4.4-9.8-10.1C606.2,394.9,610.6,390.5,616,390.5z M73.6,388.7c15.6,0,26.7-16.8,26.7-31.3
		v-2.8h-5.1c-15.1,0-39.5,2.1-39.5,18.7C55.7,381.2,61.5,388.7,73.6,388.7z M96.1,334.2h4v-1.6c0-15.7-9.8-21-22.8-21
		c-17,0-32.6,11.4-32.6,11.4l-11.2-21.3c0,0,18.4-14.7,46.5-14.7c31.2,0,49.3,17.3,49.3,47.4V409h-27.2v-9.8c0-4.7,0.5-8.4,0.5-8.4
		h-0.5c0.2,0-9.1,21-36,21c-21.2,0-40.2-13.3-40.2-37.2C25.9,336.8,76.8,334.2,96.1,334.2L96.1,334.2z M226.8,313.3h-40.4v95.3
		h-29.5v-95.3h-14.7v-23.5h14.7v-3.5c0-38.9,31.9-44,48.4-44c6,0,10,0.7,10,0.7v25.2c0,0-2.6-0.5-6-0.5c-8.4,0-22.8,2.1-22.8,19.3
		v2.8h69.9v118.9h-29.5L226.8,313.3 M286.2,289.8h28.5v13.7c0,4.4-0.5,8.1-0.5,8.1h0.5c5.1-10,18.2-24.7,42.2-24.7
		c26.4,0,41.3,13.7,41.3,45.2v76.4h-29.4v-70.4c0-14.4-3.7-24.2-18.9-24.2c-15.9,0-27.5,10-32,24.2c-1.6,4.9-2.1,10.2-2.1,15.8v54.5
		h-29.6V289.8 M425.9,408.6h29.9V290.2h-29.9V408.6z M488.2,316h-15.3v-23.6h16v-34.3h28.8v34.3h26.9V316h-26.9v46.2
		c0,19.6,15.3,22.4,23.5,22.4c3.2,0,5.3-0.5,5.3-0.5V410c0,0-3.5,0.7-9.1,0.7c-16.5,0-49.2-4.9-49.2-44.8L488.2,316 M566.7,408.6
		h29.9V290.2h-29.9V408.6z"/>
	<path class="st0" d="M440.5,276.3c10,0,18.4-8.2,18.4-18c0-10.1-8.3-18.3-18.4-18.3c-9.8,0-17.8,8.2-17.8,18.3
		C422.7,268.1,430.9,276.3,440.5,276.3 M581.4,276.3c10,0,18.4-8.2,18.4-18c0-10.1-8.3-18.3-18.4-18.3c-9.8,0-17.8,8.2-17.8,18.3
		C563.5,268.1,571.7,276.3,581.4,276.3"/>
</g>
</svg>
