<svg xmlns="http://www.w3.org/2000/svg" xmlnsXlink="http://www.w3.org/1999/xlink" version="1.1" x="0px" y="0px" viewBox="0 0 100 125" enable-background="new 0 0 100 100" xmlSpace="preserve"><path d="M66,23.69c0-0.934-0.757-1.69-1.69-1.69H24.69C23.757,22,23,22.757,23,23.69v5.619c0,0.934,0.757,1.69,1.69,1.69H64.31  c0.934,0,1.69-0.757,1.69-1.69V23.69z"/><path d="M78,38.69c0-0.934-0.757-1.69-1.691-1.69H24.691C23.757,37,23,37.757,23,38.69v5.619c0,0.934,0.757,1.69,1.691,1.69h51.617  C77.243,46,78,45.243,78,44.31V38.69z"/><path d="M48,54.689C48,53.757,47.243,53,46.31,53H24.69C23.757,53,23,53.757,23,54.689v5.621C23,61.243,23.757,62,24.69,62H46.31  c0.934,0,1.69-0.757,1.69-1.689V54.689z"/><path d="M77.663,8H23.258C15.632,8,10,14.41,10,21.528v39.343C10,68.24,15.89,74,23.258,74H32v13.613  c0,1.658,0.92,3.158,2.443,3.812c0.528,0.227,1.052,0.337,1.604,0.337c1.044,0,2.054-0.745,2.84-1.491L55.65,74h22.013  C84.781,74,90,68.499,90,60.871V21.528C90,14.169,85.023,8,77.663,8z M82,60.871C82,63.532,80.511,66,77.663,66H53.996  c-1.062,0-2.168,0.609-2.938,1.342L40,77.957v-7.402C40,68.262,38.306,66,36.014,66H23.258C20.466,66,18,63.664,18,60.871V21.528  C18,18.681,20.598,17,23.258,17h54.405C80.465,17,82,18.728,82,21.528V60.871z"/></svg>